<?xml version="1.0" encoding="UTF-8" standalone="no"?>
<!DOCTYPE svg PUBLIC "-//W3C//DTD SVG 1.1//EN" "http://www.w3.org/Graphics/SVG/1.1/DTD/svg11.dtd">
<svg width="100%" height="100%" viewBox="0 0 52 52" version="1.1" xmlns="http://www.w3.org/2000/svg" xmlns:xlink="http://www.w3.org/1999/xlink" xml:space="preserve" style="fill-rule:evenodd;clip-rule:evenodd;stroke-linejoin:round;stroke-miterlimit:1.41421;">
    <g id="Artboard1" transform="matrix(1,0,0,1,-24,-24)">
        <rect x="24" y="24" width="52" height="52" style="fill:none;"/>
        <g id="facebook" transform="matrix(1,0,0,1,28,28)">
            <rect id="Rectangle" x="0" y="0" width="44" height="44" style="fill:none;"/>
            <path id="Oval" d="M22.155,-2L22.31,-1.998L22.464,-1.996L22.618,-1.992L22.772,-1.988L22.926,-1.982L23.079,-1.976L23.233,-1.969L23.386,-1.961L23.539,-1.951L23.691,-1.941L23.844,-1.93L23.996,-1.918L24.147,-1.905L24.299,-1.891L24.45,-1.876L24.601,-1.86L24.752,-1.843L24.903,-1.826L25.053,-1.807L25.203,-1.788L25.352,-1.767L25.502,-1.746L25.651,-1.723L25.8,-1.7L25.948,-1.676L26.096,-1.651L26.244,-1.625L26.392,-1.598L26.539,-1.57L26.686,-1.542L26.833,-1.512L26.979,-1.482L27.125,-1.45L27.271,-1.418L27.416,-1.385L27.561,-1.351L27.706,-1.316L27.85,-1.28L27.994,-1.244L28.138,-1.206L28.281,-1.168L28.424,-1.129L28.567,-1.089L28.709,-1.048L28.851,-1.006L28.992,-0.963L29.134,-0.92L29.274,-0.876L29.415,-0.83L29.555,-0.784L29.694,-0.738L29.834,-0.69L29.973,-0.641L30.111,-0.592L30.249,-0.542L30.387,-0.491L30.524,-0.439L30.661,-0.387L30.798,-0.333L30.934,-0.279L31.069,-0.224L31.205,-0.168L31.34,-0.112L31.474,-0.054L31.608,0.004L31.742,0.063L31.875,0.122L32.007,0.183L32.14,0.244L32.272,0.306L32.403,0.369L32.534,0.433L32.664,0.497L32.795,0.562L32.924,0.628L33.053,0.695L33.182,0.763L33.31,0.831L33.438,0.9L33.565,0.969L33.692,1.04L33.818,1.111L33.944,1.183L34.07,1.256L34.195,1.329L34.319,1.403L34.443,1.478L34.567,1.553L34.689,1.63L34.812,1.707L34.934,1.784L35.055,1.863L35.176,1.942L35.297,2.022L35.417,2.102L35.536,2.184L35.655,2.265L35.773,2.348L35.891,2.431L36.009,2.515L36.125,2.6L36.242,2.685L36.357,2.772L36.473,2.858L36.587,2.946L36.701,3.034L36.815,3.122L36.928,3.212L37.041,3.302L37.152,3.393L37.264,3.484L37.375,3.576L37.485,3.669L37.595,3.762L37.704,3.856L37.812,3.95L37.92,4.046L38.028,4.142L38.134,4.238L38.241,4.335L38.346,4.433L38.451,4.531L38.556,4.63L38.66,4.73L38.763,4.83L38.865,4.931L38.968,5.032L39.069,5.135L39.17,5.237L39.27,5.34L39.37,5.444L39.469,5.549L39.567,5.654L39.665,5.759L39.762,5.866L39.858,5.972L39.954,6.08L40.05,6.188L40.144,6.296L40.238,6.405L40.331,6.515L40.424,6.625L40.516,6.736L40.607,6.848L40.698,6.959L40.788,7.072L40.878,7.185L40.966,7.299L41.054,7.413L41.142,7.527L41.228,7.643L41.315,7.758L41.4,7.875L41.485,7.991L41.569,8.109L41.652,8.227L41.735,8.345L41.816,8.464L41.898,8.583L41.978,8.703L42.058,8.824L42.137,8.945L42.216,9.066L42.293,9.188L42.37,9.311L42.447,9.433L42.522,9.557L42.597,9.681L42.671,9.805L42.744,9.93L42.817,10.056L42.889,10.182L42.96,10.308L43.031,10.435L43.1,10.562L43.169,10.69L43.237,10.818L43.305,10.947L43.372,11.076L43.438,11.205L43.503,11.336L43.567,11.466L43.631,11.597L43.694,11.728L43.756,11.86L43.817,11.993L43.878,12.125L43.937,12.258L43.996,12.392L44.054,12.526L44.112,12.66L44.168,12.795L44.224,12.931L44.279,13.066L44.333,13.202L44.387,13.339L44.439,13.476L44.491,13.613L44.542,13.751L44.592,13.889L44.641,14.027L44.69,14.166L44.738,14.306L44.784,14.445L44.83,14.585L44.876,14.726L44.92,14.866L44.963,15.008L45.006,15.149L45.048,15.291L45.089,15.433L45.129,15.576L45.168,15.719L45.206,15.862L45.244,16.006L45.28,16.15L45.316,16.294L45.351,16.439L45.385,16.584L45.418,16.729L45.45,16.875L45.482,17.021L45.512,17.167L45.542,17.314L45.57,17.461L45.598,17.608L45.625,17.756L45.651,17.904L45.676,18.052L45.7,18.2L45.723,18.349L45.746,18.498L45.767,18.648L45.788,18.797L45.807,18.947L45.826,19.097L45.843,19.248L45.86,19.399L45.876,19.55L45.891,19.701L45.905,19.852L45.918,20.004L45.93,20.156L45.941,20.309L45.951,20.461L45.961,20.614L45.969,20.767L45.976,20.921L45.982,21.074L45.988,21.228L45.992,21.382L45.996,21.536L45.998,21.69L46,21.845L46,22L46,22.155L45.998,22.31L45.996,22.464L45.992,22.618L45.988,22.772L45.982,22.926L45.976,23.079L45.969,23.233L45.961,23.386L45.951,23.539L45.941,23.691L45.93,23.844L45.918,23.996L45.905,24.148L45.891,24.299L45.876,24.45L45.86,24.601L45.843,24.752L45.826,24.903L45.807,25.053L45.788,25.203L45.767,25.352L45.746,25.502L45.723,25.651L45.7,25.8L45.676,25.948L45.651,26.096L45.625,26.244L45.598,26.392L45.57,26.539L45.542,26.686L45.512,26.833L45.482,26.979L45.45,27.125L45.418,27.271L45.385,27.416L45.351,27.561L45.316,27.706L45.28,27.85L45.244,27.994L45.206,28.138L45.168,28.281L45.129,28.424L45.089,28.567L45.048,28.709L45.006,28.851L44.963,28.992L44.92,29.134L44.876,29.274L44.83,29.415L44.784,29.555L44.738,29.694L44.69,29.834L44.641,29.973L44.592,30.111L44.542,30.249L44.491,30.387L44.439,30.524L44.387,30.661L44.333,30.798L44.279,30.934L44.224,31.069L44.168,31.205L44.112,31.34L44.054,31.474L43.996,31.608L43.937,31.742L43.878,31.875L43.817,32.007L43.756,32.14L43.694,32.272L43.631,32.403L43.567,32.534L43.503,32.664L43.438,32.795L43.372,32.924L43.305,33.053L43.237,33.182L43.169,33.31L43.1,33.438L43.031,33.565L42.96,33.692L42.889,33.818L42.817,33.944L42.744,34.07L42.671,34.195L42.597,34.319L42.522,34.443L42.447,34.567L42.37,34.689L42.293,34.812L42.216,34.934L42.137,35.055L42.058,35.176L41.978,35.297L41.898,35.417L41.816,35.536L41.735,35.655L41.652,35.773L41.569,35.891L41.485,36.009L41.4,36.125L41.315,36.242L41.228,36.357L41.142,36.473L41.054,36.587L40.966,36.701L40.878,36.815L40.788,36.928L40.698,37.041L40.607,37.152L40.516,37.264L40.424,37.375L40.331,37.485L40.238,37.595L40.144,37.704L40.05,37.812L39.954,37.92L39.858,38.028L39.762,38.134L39.665,38.241L39.567,38.346L39.469,38.451L39.37,38.556L39.27,38.66L39.17,38.763L39.069,38.865L38.968,38.968L38.865,39.069L38.763,39.17L38.66,39.27L38.556,39.37L38.451,39.469L38.346,39.567L38.241,39.665L38.134,39.762L38.028,39.858L37.92,39.954L37.812,40.05L37.704,40.144L37.595,40.238L37.485,40.331L37.375,40.424L37.264,40.516L37.152,40.607L37.041,40.698L36.928,40.788L36.815,40.878L36.701,40.966L36.587,41.054L36.473,41.142L36.357,41.228L36.242,41.315L36.125,41.4L36.009,41.485L35.891,41.569L35.773,41.652L35.655,41.735L35.536,41.816L35.417,41.898L35.297,41.978L35.176,42.058L35.055,42.137L34.934,42.216L34.812,42.293L34.689,42.37L34.567,42.447L34.443,42.522L34.319,42.597L34.195,42.671L34.07,42.744L33.944,42.817L33.818,42.889L33.692,42.96L33.565,43.031L33.438,43.1L33.31,43.169L33.182,43.237L33.053,43.305L32.924,43.372L32.795,43.438L32.664,43.503L32.534,43.567L32.403,43.631L32.272,43.694L32.14,43.756L32.007,43.817L31.875,43.878L31.742,43.937L31.608,43.996L31.474,44.054L31.34,44.112L31.205,44.168L31.069,44.224L30.934,44.279L30.798,44.333L30.661,44.387L30.524,44.439L30.387,44.491L30.249,44.542L30.111,44.592L29.973,44.641L29.834,44.69L29.694,44.738L29.555,44.784L29.415,44.83L29.274,44.876L29.134,44.92L28.992,44.963L28.851,45.006L28.709,45.048L28.567,45.089L28.424,45.129L28.281,45.168L28.138,45.206L27.994,45.244L27.85,45.28L27.706,45.316L27.561,45.351L27.416,45.385L27.271,45.418L27.125,45.45L26.979,45.482L26.833,45.512L26.686,45.542L26.539,45.57L26.392,45.598L26.244,45.625L26.096,45.651L25.948,45.676L25.8,45.7L25.651,45.723L25.502,45.746L25.352,45.767L25.203,45.788L25.053,45.807L24.903,45.826L24.752,45.843L24.601,45.86L24.45,45.876L24.299,45.891L24.148,45.905L23.996,45.918L23.844,45.93L23.691,45.941L23.539,45.951L23.386,45.961L23.233,45.969L23.079,45.976L22.926,45.982L22.772,45.988L22.618,45.992L22.464,45.996L22.31,45.998L22.155,46L22,46L21.845,46L21.69,45.998L21.536,45.996L21.382,45.992L21.228,45.988L21.074,45.982L20.921,45.976L20.767,45.969L20.614,45.961L20.461,45.951L20.309,45.941L20.156,45.93L20.004,45.918L19.852,45.905L19.701,45.891L19.55,45.876L19.399,45.86L19.248,45.843L19.097,45.826L18.947,45.807L18.797,45.788L18.648,45.767L18.498,45.746L18.349,45.723L18.2,45.7L18.052,45.676L17.904,45.651L17.756,45.625L17.608,45.598L17.461,45.57L17.314,45.542L17.167,45.512L17.021,45.482L16.875,45.45L16.729,45.418L16.584,45.385L16.439,45.351L16.294,45.316L16.15,45.28L16.006,45.244L15.862,45.206L15.719,45.168L15.576,45.129L15.433,45.089L15.291,45.048L15.149,45.006L15.008,44.963L14.866,44.92L14.726,44.876L14.585,44.83L14.445,44.784L14.306,44.738L14.166,44.69L14.027,44.641L13.889,44.592L13.751,44.542L13.613,44.491L13.476,44.439L13.339,44.387L13.202,44.333L13.066,44.279L12.931,44.224L12.795,44.168L12.66,44.112L12.526,44.054L12.392,43.996L12.258,43.937L12.125,43.878L11.993,43.817L11.86,43.756L11.728,43.694L11.597,43.631L11.466,43.567L11.336,43.503L11.205,43.438L11.076,43.372L10.947,43.305L10.818,43.237L10.69,43.169L10.562,43.1L10.435,43.031L10.308,42.96L10.182,42.889L10.056,42.817L9.93,42.744L9.805,42.671L9.681,42.597L9.557,42.522L9.433,42.447L9.311,42.37L9.188,42.293L9.066,42.216L8.945,42.137L8.824,42.058L8.703,41.978L8.583,41.898L8.464,41.816L8.345,41.735L8.227,41.652L8.109,41.569L7.991,41.485L7.875,41.4L7.758,41.315L7.643,41.228L7.527,41.142L7.413,41.054L7.299,40.966L7.185,40.878L7.072,40.788L6.959,40.698L6.848,40.607L6.736,40.516L6.625,40.424L6.515,40.331L6.405,40.238L6.296,40.144L6.188,40.05L6.08,39.954L5.972,39.858L5.866,39.762L5.759,39.665L5.654,39.567L5.549,39.469L5.444,39.37L5.34,39.27L5.237,39.17L5.135,39.069L5.032,38.968L4.931,38.865L4.83,38.763L4.73,38.66L4.63,38.556L4.531,38.451L4.433,38.346L4.335,38.241L4.238,38.134L4.142,38.028L4.046,37.92L3.95,37.812L3.856,37.704L3.762,37.595L3.669,37.485L3.576,37.375L3.484,37.264L3.393,37.152L3.302,37.041L3.212,36.928L3.122,36.815L3.034,36.701L2.946,36.587L2.858,36.473L2.772,36.357L2.685,36.242L2.6,36.125L2.515,36.009L2.431,35.891L2.348,35.773L2.265,35.655L2.184,35.536L2.102,35.417L2.022,35.297L1.942,35.176L1.863,35.055L1.784,34.934L1.707,34.812L1.63,34.689L1.553,34.567L1.478,34.443L1.403,34.319L1.329,34.195L1.256,34.07L1.183,33.944L1.111,33.818L1.04,33.692L0.969,33.565L0.9,33.438L0.831,33.31L0.763,33.182L0.695,33.053L0.628,32.924L0.562,32.795L0.497,32.664L0.433,32.534L0.369,32.403L0.306,32.272L0.244,32.14L0.183,32.007L0.122,31.875L0.063,31.742L0.004,31.608L-0.054,31.474L-0.112,31.34L-0.168,31.205L-0.224,31.069L-0.279,30.934L-0.333,30.798L-0.387,30.661L-0.439,30.524L-0.491,30.387L-0.542,30.249L-0.592,30.111L-0.641,29.973L-0.69,29.834L-0.738,29.694L-0.784,29.555L-0.83,29.415L-0.876,29.274L-0.92,29.134L-0.963,28.992L-1.006,28.851L-1.048,28.709L-1.089,28.567L-1.129,28.424L-1.168,28.281L-1.206,28.138L-1.244,27.994L-1.28,27.85L-1.316,27.706L-1.351,27.561L-1.385,27.416L-1.418,27.271L-1.45,27.125L-1.482,26.979L-1.512,26.833L-1.542,26.686L-1.57,26.539L-1.598,26.392L-1.625,26.244L-1.651,26.096L-1.676,25.948L-1.7,25.8L-1.723,25.651L-1.746,25.502L-1.767,25.352L-1.788,25.203L-1.807,25.053L-1.826,24.903L-1.843,24.752L-1.86,24.601L-1.876,24.45L-1.891,24.299L-1.905,24.147L-1.918,23.996L-1.93,23.844L-1.941,23.691L-1.951,23.539L-1.961,23.386L-1.969,23.233L-1.976,23.079L-1.982,22.926L-1.988,22.772L-1.992,22.618L-1.996,22.464L-1.998,22.31L-2,22.155L-2,22L-2,21.845L-1.998,21.69L-1.996,21.536L-1.992,21.382L-1.988,21.228L-1.982,21.074L-1.976,20.921L-1.969,20.767L-1.961,20.614L-1.951,20.461L-1.941,20.309L-1.93,20.156L-1.918,20.004L-1.905,19.853L-1.891,19.701L-1.876,19.55L-1.86,19.399L-1.843,19.248L-1.826,19.097L-1.807,18.947L-1.788,18.797L-1.767,18.648L-1.746,18.498L-1.723,18.349L-1.7,18.2L-1.676,18.052L-1.651,17.904L-1.625,17.756L-1.598,17.608L-1.57,17.461L-1.542,17.314L-1.512,17.167L-1.482,17.021L-1.45,16.875L-1.418,16.729L-1.385,16.584L-1.351,16.439L-1.316,16.294L-1.28,16.15L-1.244,16.006L-1.206,15.862L-1.168,15.719L-1.129,15.576L-1.089,15.433L-1.048,15.291L-1.006,15.149L-0.963,15.008L-0.92,14.866L-0.876,14.726L-0.83,14.585L-0.784,14.445L-0.738,14.306L-0.69,14.166L-0.641,14.027L-0.592,13.889L-0.542,13.751L-0.491,13.613L-0.439,13.476L-0.387,13.339L-0.333,13.202L-0.279,13.066L-0.224,12.931L-0.168,12.795L-0.112,12.66L-0.054,12.526L0.004,12.392L0.063,12.258L0.122,12.125L0.183,11.993L0.244,11.86L0.306,11.728L0.369,11.597L0.433,11.466L0.497,11.336L0.562,11.205L0.628,11.076L0.695,10.947L0.763,10.818L0.831,10.69L0.9,10.562L0.969,10.435L1.04,10.308L1.111,10.182L1.183,10.056L1.256,9.93L1.329,9.805L1.403,9.681L1.478,9.557L1.553,9.433L1.63,9.311L1.707,9.188L1.784,9.066L1.863,8.945L1.942,8.824L2.022,8.703L2.102,8.583L2.184,8.464L2.265,8.345L2.348,8.227L2.431,8.109L2.515,7.991L2.6,7.875L2.685,7.758L2.772,7.643L2.858,7.527L2.946,7.413L3.034,7.299L3.122,7.185L3.212,7.072L3.302,6.959L3.393,6.848L3.484,6.736L3.576,6.625L3.669,6.515L3.762,6.405L3.856,6.296L3.95,6.188L4.046,6.08L4.142,5.972L4.238,5.866L4.335,5.759L4.433,5.654L4.531,5.549L4.63,5.444L4.73,5.34L4.83,5.237L4.931,5.135L5.032,5.032L5.135,4.931L5.237,4.83L5.34,4.73L5.444,4.63L5.549,4.531L5.654,4.433L5.759,4.335L5.866,4.238L5.972,4.142L6.08,4.046L6.188,3.95L6.296,3.856L6.405,3.762L6.515,3.669L6.625,3.576L6.736,3.484L6.848,3.393L6.959,3.302L7.072,3.212L7.185,3.122L7.299,3.034L7.413,2.946L7.527,2.858L7.643,2.772L7.758,2.685L7.875,2.6L7.991,2.515L8.109,2.431L8.227,2.348L8.345,2.265L8.464,2.184L8.583,2.102L8.703,2.022L8.824,1.942L8.945,1.863L9.066,1.784L9.188,1.707L9.311,1.63L9.433,1.553L9.557,1.478L9.681,1.403L9.805,1.329L9.93,1.256L10.056,1.183L10.182,1.111L10.308,1.04L10.435,0.969L10.562,0.9L10.69,0.831L10.818,0.763L10.947,0.695L11.076,0.628L11.205,0.562L11.336,0.497L11.466,0.433L11.597,0.369L11.728,0.306L11.86,0.244L11.993,0.183L12.125,0.122L12.258,0.063L12.392,0.004L12.526,-0.054L12.66,-0.112L12.795,-0.168L12.931,-0.224L13.066,-0.279L13.202,-0.333L13.339,-0.387L13.476,-0.439L13.613,-0.491L13.751,-0.542L13.889,-0.592L14.027,-0.641L14.166,-0.69L14.306,-0.738L14.445,-0.784L14.585,-0.83L14.726,-0.876L14.866,-0.92L15.008,-0.963L15.149,-1.006L15.291,-1.048L15.433,-1.089L15.576,-1.129L15.719,-1.168L15.862,-1.206L16.006,-1.244L16.15,-1.28L16.294,-1.316L16.439,-1.351L16.584,-1.385L16.729,-1.418L16.875,-1.45L17.021,-1.482L17.167,-1.512L17.314,-1.542L17.461,-1.57L17.608,-1.598L17.756,-1.625L17.904,-1.651L18.052,-1.676L18.2,-1.7L18.349,-1.723L18.498,-1.746L18.648,-1.767L18.797,-1.788L18.947,-1.807L19.097,-1.826L19.248,-1.843L19.399,-1.86L19.55,-1.876L19.701,-1.891L19.853,-1.905L20.004,-1.918L20.156,-1.93L20.309,-1.941L20.461,-1.951L20.614,-1.961L20.767,-1.969L20.921,-1.976L21.074,-1.982L21.228,-1.988L21.382,-1.992L21.536,-1.996L21.69,-1.998L21.845,-2L22,-2L22.155,-2ZM21.87,2L21.741,2.002L21.612,2.004L21.483,2.007L21.355,2.01L21.226,2.015L21.098,2.02L20.97,2.026L20.842,2.033L20.715,2.041L20.587,2.049L20.46,2.058L20.333,2.068L20.207,2.079L20.08,2.091L19.954,2.103L19.828,2.117L19.703,2.131L19.577,2.145L19.452,2.161L19.327,2.177L19.203,2.194L19.078,2.212L18.954,2.231L18.83,2.25L18.706,2.27L18.583,2.291L18.46,2.313L18.337,2.335L18.214,2.358L18.092,2.382L17.97,2.407L17.848,2.432L17.727,2.458L17.605,2.485L17.484,2.512L17.364,2.541L17.243,2.57L17.123,2.599L17.003,2.63L16.884,2.661L16.765,2.693L16.646,2.726L16.527,2.759L16.409,2.793L16.291,2.828L16.173,2.863L16.055,2.899L15.938,2.936L15.821,2.974L15.705,3.012L15.589,3.051L15.473,3.091L15.357,3.131L15.242,3.172L15.127,3.214L15.012,3.256L14.898,3.299L14.784,3.343L14.671,3.387L14.557,3.433L14.444,3.478L14.332,3.525L14.22,3.572L14.108,3.62L13.996,3.668L13.885,3.717L13.774,3.767L13.664,3.817L13.553,3.868L13.444,3.92L13.334,3.972L13.225,4.025L13.116,4.079L13.008,4.133L12.9,4.188L12.793,4.244L12.685,4.3L12.579,4.357L12.472,4.414L12.366,4.472L12.26,4.531L12.155,4.59L12.05,4.65L11.946,4.711L11.842,4.772L11.738,4.834L11.635,4.896L11.532,4.959L11.429,5.022L11.327,5.087L11.226,5.151L11.124,5.217L11.023,5.283L10.923,5.349L10.823,5.416L10.723,5.484L10.624,5.553L10.526,5.621L10.427,5.691L10.329,5.761L10.232,5.832L10.135,5.903L10.039,5.975L9.942,6.047L9.847,6.12L9.752,6.193L9.657,6.267L9.563,6.342L9.469,6.417L9.375,6.493L9.282,6.569L9.19,6.646L9.098,6.723L9.007,6.801L8.916,6.879L8.825,6.958L8.735,7.038L8.645,7.118L8.556,7.198L8.468,7.279L8.379,7.361L8.292,7.443L8.205,7.525L8.118,7.608L8.032,7.692L7.946,7.776L7.861,7.861L7.776,7.946L7.692,8.032L7.608,8.118L7.525,8.205L7.443,8.292L7.361,8.379L7.279,8.468L7.198,8.556L7.118,8.645L7.038,8.735L6.958,8.825L6.879,8.916L6.801,9.007L6.723,9.098L6.646,9.19L6.569,9.282L6.493,9.375L6.417,9.469L6.342,9.563L6.267,9.657L6.193,9.752L6.12,9.847L6.047,9.942L5.975,10.039L5.903,10.135L5.832,10.232L5.761,10.329L5.691,10.427L5.621,10.526L5.553,10.624L5.484,10.723L5.416,10.823L5.349,10.923L5.283,11.023L5.217,11.124L5.151,11.226L5.087,11.327L5.022,11.429L4.959,11.532L4.896,11.635L4.834,11.738L4.772,11.842L4.711,11.946L4.65,12.05L4.59,12.155L4.531,12.26L4.472,12.366L4.414,12.472L4.357,12.579L4.3,12.685L4.244,12.793L4.188,12.9L4.133,13.008L4.079,13.116L4.025,13.225L3.972,13.334L3.92,13.444L3.868,13.553L3.817,13.664L3.767,13.774L3.717,13.885L3.668,13.996L3.62,14.108L3.572,14.22L3.525,14.332L3.478,14.444L3.433,14.557L3.387,14.671L3.343,14.784L3.299,14.898L3.256,15.012L3.214,15.127L3.172,15.242L3.131,15.357L3.091,15.473L3.051,15.589L3.012,15.705L2.974,15.821L2.936,15.938L2.899,16.055L2.863,16.173L2.828,16.291L2.793,16.409L2.759,16.527L2.726,16.646L2.693,16.765L2.661,16.884L2.63,17.003L2.599,17.123L2.57,17.243L2.541,17.364L2.512,17.484L2.485,17.605L2.458,17.727L2.432,17.848L2.407,17.97L2.382,18.092L2.358,18.214L2.335,18.337L2.313,18.46L2.291,18.583L2.27,18.706L2.25,18.83L2.231,18.954L2.212,19.078L2.194,19.203L2.177,19.327L2.161,19.452L2.145,19.577L2.131,19.703L2.117,19.828L2.103,19.954L2.091,20.08L2.079,20.207L2.068,20.333L2.058,20.46L2.049,20.587L2.041,20.715L2.033,20.842L2.026,20.97L2.02,21.098L2.015,21.226L2.01,21.355L2.007,21.483L2.004,21.612L2.002,21.741L2,21.87L2,22L2,22.13L2.002,22.259L2.004,22.388L2.007,22.517L2.01,22.645L2.015,22.774L2.02,22.902L2.026,23.03L2.033,23.158L2.041,23.285L2.049,23.413L2.058,23.54L2.068,23.667L2.079,23.793L2.091,23.92L2.103,24.046L2.117,24.172L2.131,24.297L2.145,24.423L2.161,24.548L2.177,24.673L2.194,24.797L2.212,24.922L2.231,25.046L2.25,25.17L2.27,25.294L2.291,25.417L2.313,25.54L2.335,25.663L2.358,25.786L2.382,25.908L2.407,26.03L2.432,26.152L2.458,26.273L2.485,26.395L2.512,26.516L2.541,26.636L2.57,26.757L2.599,26.877L2.63,26.997L2.661,27.116L2.693,27.235L2.726,27.354L2.759,27.473L2.793,27.591L2.828,27.709L2.863,27.827L2.899,27.945L2.936,28.062L2.974,28.179L3.012,28.295L3.051,28.411L3.091,28.527L3.131,28.643L3.172,28.758L3.214,28.873L3.256,28.988L3.299,29.102L3.343,29.216L3.387,29.329L3.433,29.443L3.478,29.556L3.525,29.668L3.572,29.78L3.62,29.892L3.668,30.004L3.717,30.115L3.767,30.226L3.817,30.336L3.868,30.447L3.92,30.556L3.972,30.666L4.025,30.775L4.079,30.884L4.133,30.992L4.188,31.1L4.244,31.207L4.3,31.315L4.357,31.421L4.414,31.528L4.472,31.634L4.531,31.74L4.59,31.845L4.65,31.95L4.711,32.054L4.772,32.158L4.834,32.262L4.896,32.365L4.959,32.468L5.022,32.571L5.087,32.673L5.151,32.774L5.217,32.876L5.283,32.977L5.349,33.077L5.416,33.177L5.484,33.277L5.553,33.376L5.621,33.474L5.691,33.573L5.761,33.671L5.832,33.768L5.903,33.865L5.975,33.961L6.047,34.058L6.12,34.153L6.193,34.248L6.267,34.343L6.342,34.437L6.417,34.531L6.493,34.625L6.569,34.717L6.646,34.81L6.723,34.902L6.801,34.993L6.879,35.084L6.958,35.175L7.038,35.265L7.118,35.355L7.198,35.444L7.279,35.532L7.361,35.621L7.443,35.708L7.525,35.795L7.608,35.882L7.692,35.968L7.776,36.054L7.861,36.139L7.946,36.224L8.032,36.308L8.118,36.392L8.205,36.475L8.292,36.557L8.379,36.639L8.468,36.721L8.556,36.802L8.645,36.882L8.735,36.962L8.825,37.042L8.916,37.121L9.007,37.199L9.098,37.277L9.19,37.354L9.282,37.431L9.375,37.507L9.469,37.583L9.563,37.658L9.657,37.733L9.752,37.807L9.847,37.88L9.942,37.953L10.039,38.025L10.135,38.097L10.232,38.168L10.329,38.239L10.427,38.309L10.526,38.379L10.624,38.447L10.723,38.516L10.823,38.584L10.923,38.651L11.023,38.717L11.124,38.783L11.226,38.849L11.327,38.913L11.429,38.978L11.532,39.041L11.635,39.104L11.738,39.166L11.842,39.228L11.946,39.289L12.05,39.35L12.155,39.41L12.26,39.469L12.366,39.528L12.472,39.586L12.579,39.643L12.685,39.7L12.793,39.756L12.9,39.812L13.008,39.867L13.116,39.921L13.225,39.975L13.334,40.028L13.444,40.08L13.553,40.132L13.664,40.183L13.774,40.233L13.885,40.283L13.996,40.332L14.108,40.38L14.22,40.428L14.332,40.475L14.444,40.522L14.557,40.567L14.671,40.613L14.784,40.657L14.898,40.701L15.012,40.744L15.127,40.786L15.242,40.828L15.357,40.869L15.473,40.909L15.589,40.949L15.705,40.988L15.821,41.026L15.938,41.064L16.055,41.101L16.173,41.137L16.291,41.172L16.409,41.207L16.527,41.241L16.646,41.274L16.765,41.307L16.884,41.339L17.003,41.37L17.123,41.401L17.243,41.43L17.364,41.459L17.484,41.488L17.605,41.515L17.727,41.542L17.848,41.568L17.97,41.593L18.092,41.618L18.214,41.642L18.337,41.665L18.46,41.687L18.583,41.709L18.706,41.73L18.83,41.75L18.954,41.769L19.078,41.788L19.203,41.806L19.327,41.823L19.452,41.839L19.577,41.855L19.703,41.869L19.828,41.883L19.954,41.897L20.08,41.909L20.207,41.921L20.333,41.932L20.46,41.942L20.587,41.951L20.715,41.959L20.842,41.967L20.97,41.974L21.098,41.98L21.226,41.985L21.355,41.99L21.483,41.993L21.612,41.996L21.741,41.998L21.87,42L22,42L22.13,42L22.259,41.998L22.388,41.996L22.517,41.993L22.645,41.99L22.774,41.985L22.902,41.98L23.03,41.974L23.158,41.967L23.285,41.959L23.413,41.951L23.54,41.942L23.667,41.932L23.793,41.921L23.92,41.909L24.046,41.897L24.172,41.883L24.297,41.869L24.423,41.855L24.548,41.839L24.673,41.823L24.797,41.806L24.922,41.788L25.046,41.769L25.17,41.75L25.294,41.73L25.417,41.709L25.54,41.687L25.663,41.665L25.786,41.642L25.908,41.618L26.03,41.593L26.152,41.568L26.273,41.542L26.395,41.515L26.516,41.488L26.636,41.459L26.757,41.43L26.877,41.401L26.997,41.37L27.116,41.339L27.235,41.307L27.354,41.274L27.473,41.241L27.591,41.207L27.709,41.172L27.827,41.137L27.945,41.101L28.062,41.064L28.179,41.026L28.295,40.988L28.411,40.949L28.527,40.909L28.643,40.869L28.758,40.828L28.873,40.786L28.988,40.744L29.102,40.701L29.216,40.657L29.329,40.613L29.443,40.567L29.556,40.522L29.668,40.475L29.78,40.428L29.892,40.38L30.004,40.332L30.115,40.283L30.226,40.233L30.336,40.183L30.447,40.132L30.556,40.08L30.666,40.028L30.775,39.975L30.884,39.921L30.992,39.867L31.1,39.812L31.207,39.756L31.315,39.7L31.421,39.643L31.528,39.586L31.634,39.528L31.74,39.469L31.845,39.41L31.95,39.35L32.054,39.289L32.158,39.228L32.262,39.166L32.365,39.104L32.468,39.041L32.571,38.978L32.673,38.913L32.774,38.849L32.876,38.783L32.977,38.717L33.077,38.651L33.177,38.584L33.277,38.516L33.376,38.447L33.474,38.379L33.573,38.309L33.671,38.239L33.768,38.168L33.865,38.097L33.961,38.025L34.058,37.953L34.153,37.88L34.248,37.807L34.343,37.733L34.437,37.658L34.531,37.583L34.625,37.507L34.717,37.431L34.81,37.354L34.902,37.277L34.993,37.199L35.084,37.121L35.175,37.042L35.265,36.962L35.355,36.882L35.444,36.802L35.532,36.721L35.621,36.639L35.708,36.557L35.795,36.475L35.882,36.392L35.968,36.308L36.054,36.224L36.139,36.139L36.224,36.054L36.308,35.968L36.392,35.882L36.475,35.795L36.557,35.708L36.639,35.621L36.721,35.532L36.802,35.444L36.882,35.355L36.962,35.265L37.042,35.175L37.121,35.084L37.199,34.993L37.277,34.902L37.354,34.81L37.431,34.717L37.507,34.625L37.583,34.531L37.658,34.437L37.733,34.343L37.807,34.248L37.88,34.153L37.953,34.058L38.025,33.961L38.097,33.865L38.168,33.768L38.239,33.671L38.309,33.573L38.379,33.474L38.447,33.376L38.516,33.277L38.584,33.177L38.651,33.077L38.717,32.977L38.783,32.876L38.849,32.774L38.913,32.673L38.978,32.571L39.041,32.468L39.104,32.365L39.166,32.262L39.228,32.158L39.289,32.054L39.35,31.95L39.41,31.845L39.469,31.74L39.528,31.634L39.586,31.528L39.643,31.421L39.7,31.315L39.756,31.207L39.812,31.1L39.867,30.992L39.921,30.884L39.975,30.775L40.028,30.666L40.08,30.556L40.132,30.447L40.183,30.336L40.233,30.226L40.283,30.115L40.332,30.004L40.38,29.892L40.428,29.78L40.475,29.668L40.522,29.556L40.567,29.443L40.613,29.329L40.657,29.216L40.701,29.102L40.744,28.988L40.786,28.873L40.828,28.758L40.869,28.643L40.909,28.527L40.949,28.411L40.988,28.295L41.026,28.179L41.064,28.062L41.101,27.945L41.137,27.827L41.172,27.709L41.207,27.591L41.241,27.473L41.274,27.354L41.307,27.235L41.339,27.116L41.37,26.997L41.401,26.877L41.43,26.757L41.459,26.636L41.488,26.516L41.515,26.395L41.542,26.273L41.568,26.152L41.593,26.03L41.618,25.908L41.642,25.786L41.665,25.663L41.687,25.54L41.709,25.417L41.73,25.294L41.75,25.17L41.769,25.046L41.788,24.922L41.806,24.797L41.823,24.673L41.839,24.548L41.855,24.423L41.869,24.297L41.883,24.172L41.897,24.046L41.909,23.92L41.921,23.793L41.932,23.667L41.942,23.54L41.951,23.413L41.959,23.285L41.967,23.158L41.974,23.03L41.98,22.902L41.985,22.774L41.99,22.645L41.993,22.517L41.996,22.388L41.998,22.259L42,22.13L42,22L42,21.87L41.998,21.741L41.996,21.612L41.993,21.483L41.99,21.355L41.985,21.226L41.98,21.098L41.974,20.97L41.967,20.842L41.959,20.715L41.951,20.587L41.942,20.46L41.932,20.333L41.921,20.207L41.909,20.08L41.897,19.954L41.883,19.828L41.869,19.703L41.855,19.577L41.839,19.452L41.823,19.327L41.806,19.203L41.788,19.078L41.769,18.954L41.75,18.83L41.73,18.706L41.709,18.583L41.687,18.46L41.665,18.337L41.642,18.214L41.618,18.092L41.593,17.97L41.568,17.848L41.542,17.727L41.515,17.605L41.488,17.484L41.459,17.364L41.43,17.243L41.401,17.123L41.37,17.003L41.339,16.884L41.307,16.765L41.274,16.646L41.241,16.527L41.207,16.409L41.172,16.291L41.137,16.173L41.101,16.055L41.064,15.938L41.026,15.821L40.988,15.705L40.949,15.589L40.909,15.473L40.869,15.357L40.828,15.242L40.786,15.127L40.744,15.012L40.701,14.898L40.657,14.784L40.613,14.671L40.567,14.557L40.522,14.444L40.475,14.332L40.428,14.22L40.38,14.108L40.332,13.996L40.283,13.885L40.233,13.774L40.183,13.664L40.132,13.553L40.08,13.444L40.028,13.334L39.975,13.225L39.921,13.116L39.867,13.008L39.812,12.9L39.756,12.793L39.7,12.685L39.643,12.579L39.586,12.472L39.528,12.366L39.469,12.26L39.41,12.155L39.35,12.05L39.289,11.946L39.228,11.842L39.166,11.738L39.104,11.635L39.041,11.532L38.978,11.429L38.913,11.327L38.849,11.226L38.783,11.124L38.717,11.023L38.651,10.923L38.584,10.823L38.516,10.723L38.447,10.624L38.379,10.526L38.309,10.427L38.239,10.329L38.168,10.232L38.097,10.135L38.025,10.039L37.953,9.942L37.88,9.847L37.807,9.752L37.733,9.657L37.658,9.563L37.583,9.469L37.507,9.375L37.431,9.282L37.354,9.19L37.277,9.098L37.199,9.007L37.121,8.916L37.042,8.825L36.962,8.735L36.882,8.645L36.802,8.556L36.721,8.468L36.639,8.379L36.557,8.292L36.475,8.205L36.392,8.118L36.308,8.032L36.224,7.946L36.139,7.861L36.054,7.776L35.968,7.692L35.882,7.608L35.795,7.525L35.708,7.443L35.621,7.361L35.532,7.279L35.444,7.198L35.355,7.118L35.265,7.038L35.175,6.958L35.084,6.879L34.993,6.801L34.902,6.723L34.81,6.646L34.717,6.569L34.625,6.493L34.531,6.417L34.437,6.342L34.343,6.267L34.248,6.193L34.153,6.12L34.058,6.047L33.961,5.975L33.865,5.903L33.768,5.832L33.671,5.761L33.573,5.691L33.474,5.621L33.376,5.553L33.277,5.484L33.177,5.416L33.077,5.349L32.977,5.283L32.876,5.217L32.774,5.151L32.673,5.087L32.571,5.022L32.468,4.959L32.365,4.896L32.262,4.834L32.158,4.772L32.054,4.711L31.95,4.65L31.845,4.59L31.74,4.531L31.634,4.472L31.528,4.414L31.421,4.357L31.315,4.3L31.207,4.244L31.1,4.188L30.992,4.133L30.884,4.079L30.775,4.025L30.666,3.972L30.556,3.92L30.447,3.868L30.336,3.817L30.226,3.767L30.115,3.717L30.004,3.668L29.892,3.62L29.78,3.572L29.668,3.525L29.556,3.478L29.443,3.433L29.329,3.387L29.216,3.343L29.102,3.299L28.988,3.256L28.873,3.214L28.758,3.172L28.643,3.131L28.527,3.091L28.411,3.051L28.295,3.012L28.179,2.974L28.062,2.936L27.945,2.899L27.827,2.863L27.709,2.828L27.591,2.793L27.473,2.759L27.354,2.726L27.235,2.693L27.116,2.661L26.997,2.63L26.877,2.599L26.757,2.57L26.636,2.541L26.516,2.512L26.395,2.485L26.273,2.458L26.152,2.432L26.03,2.407L25.908,2.382L25.786,2.358L25.663,2.335L25.54,2.313L25.417,2.291L25.294,2.27L25.17,2.25L25.046,2.231L24.922,2.212L24.797,2.194L24.673,2.177L24.548,2.161L24.423,2.145L24.297,2.131L24.172,2.117L24.046,2.103L23.92,2.091L23.793,2.079L23.667,2.068L23.54,2.058L23.413,2.049L23.285,2.041L23.158,2.033L23.03,2.026L22.902,2.02L22.774,2.015L22.645,2.01L22.517,2.007L22.388,2.004L22.259,2.002L22.13,2L22,2L21.87,2Z"/>
            <path id="Shape" d="M23.315,35L18.437,35L18.437,23.499L16,23.499L16,19.536L18.437,19.536L18.437,17.156C18.437,13.923 19.813,12 23.723,12L26.978,12L26.978,15.964L24.944,15.964C23.421,15.964 23.321,16.518 23.321,17.552L23.314,19.536L27,19.536L26.569,23.499L23.314,23.499L23.314,35L23.315,35Z"/>
        </g>
    </g>
</svg>
