<?xml version="1.0" encoding="UTF-8" standalone="no"?><!DOCTYPE svg PUBLIC "-//W3C//DTD SVG 1.1//EN" "http://www.w3.org/Graphics/SVG/1.1/DTD/svg11.dtd"><svg width="100%" height="100%" viewBox="0 0 332 346" version="1.1" xmlns="http://www.w3.org/2000/svg" xmlns:xlink="http://www.w3.org/1999/xlink" xml:space="preserve" style="fill-rule:evenodd;clip-rule:evenodd;stroke-linejoin:round;stroke-miterlimit:1.41421;"><g><g opacity="0.307063"><path d="M694.847,21.541l-373.53,-224.117l373.53,732.117l0,-508Z" style="fill:#0d79f2;fill-opacity:0.75;"/><path d="M702.317,12.576l373.53,-224.117l-747.059,0l373.529,224.117Z" style="fill:#0d79f2;fill-opacity:0.5;"/></g></g><g><g><path d="M167.369,102.705l89.014,-53.408l-89.014,174.467l0,-121.059Z" style="fill:#0d79f2;"/><path d="M163.809,102.705l-89.014,-53.408l89.014,174.467l0,-121.059Z" style="fill:#0d79f2;fill-opacity:0.75;"/><path d="M165.589,100.569l89.014,-53.409l-178.028,0l89.014,53.409Z" style="fill:#0d79f2;fill-opacity:0.5;"/></g><g transform="matrix(5.52963,0,0,5.52963,-1455.59,-4266.22)"><text x="263.846px" y="831.261px" style="font-family:'Roboto-Thin', 'Roboto';font-weight:250;font-size:12px;">D<tspan x="272.898px 281.264px 289.636px " y="831.261px 831.261px 831.261px ">ATA</tspan></text><text x="298.002px" y="831.261px" style="font-family:'Roboto-Thin', 'Roboto';font-weight:250;font-size:12px;fill:#0d79f2;">T<tspan x="306.374px 314.74px " y="831.261px 831.261px ">AS</tspan></text></g></g></svg>