<?xml version="1.0" encoding="UTF-8" standalone="no"?>
<!DOCTYPE svg PUBLIC "-//W3C//DTD SVG 1.1//EN" "http://www.w3.org/Graphics/SVG/1.1/DTD/svg11.dtd">
<svg width="100%" height="100%" viewBox="0 0 640 136" version="1.1" xmlns="http://www.w3.org/2000/svg" xmlns:xlink="http://www.w3.org/1999/xlink" xml:space="preserve" style="fill-rule:evenodd;clip-rule:evenodd;stroke-linejoin:round;stroke-miterlimit:1.41421;">
    <path d="M794.847,-359.459L421.317,-583.576L794.847,148.541L794.847,-359.459L794.847,-359.459Z" style="fill:rgb(13,121,242);fill-opacity:0.229996;"/>
    <g>
        <g>
            <path d="M72.714,47.195L134.392,10.188L72.714,131.077L72.714,47.195L72.714,47.195Z" style="fill:rgb(13,121,242);"/>
            <path d="M70.247,47.195L8.569,10.188L70.247,131.077L70.247,47.195L70.247,47.195Z" style="fill:rgb(13,121,242);fill-opacity:0.74902;"/>
            <path d="M71.48,45.715L133.158,8.708L9.802,8.708L71.48,45.715Z" style="fill:rgb(13,121,242);fill-opacity:0.498039;"/>
        </g>
        <g transform="matrix(8.30042,0,0,8.30042,-2039.85,-6794.52)">
            <g>
                <g transform="matrix(1,0,0,1,263.846,831.261)">
                    <path d="M1.172,0L1.172,-8.531L3.533,-8.531C4.193,-8.531 4.791,-8.375 5.326,-8.063C5.861,-7.75 6.281,-7.312 6.586,-6.747C6.891,-6.183 7.047,-5.551 7.055,-4.852L7.055,-3.744C7.055,-3.033 6.905,-2.393 6.606,-1.822C6.308,-1.252 5.891,-0.807 5.355,-0.486C4.82,-0.166 4.223,-0.004 3.563,0L1.172,0ZM1.488,-8.215L1.488,-0.316L3.533,-0.316C4.131,-0.316 4.675,-0.462 5.165,-0.753C5.655,-1.044 6.039,-1.45 6.316,-1.972C6.594,-2.493 6.734,-3.072 6.738,-3.709L6.738,-4.805C6.738,-5.441 6.603,-6.02 6.331,-6.539C6.06,-7.059 5.681,-7.466 5.194,-7.761C4.708,-8.056 4.17,-8.207 3.58,-8.215L1.488,-8.215Z" style="fill-rule:nonzero;"/>
                </g>
                <g transform="matrix(1,0,0,1,272.898,831.261)">
                    <path d="M5.666,-2.549L1.488,-2.549L0.539,0L0.193,0L3.387,-8.531L3.773,-8.531L6.967,0L6.621,0L5.666,-2.549ZM1.605,-2.865L5.549,-2.865L3.58,-8.15L1.605,-2.865Z" style="fill-rule:nonzero;"/>
                    <path d="M13.26,-8.215L10.154,-8.215L10.154,0L9.838,0L9.838,-8.215L6.732,-8.215L6.732,-8.531L13.26,-8.531L13.26,-8.215Z" style="fill-rule:nonzero;"/>
                    <path d="M18.785,-2.549L14.607,-2.549L13.658,0L13.313,0L16.506,-8.531L16.893,-8.531L20.086,0L19.74,0L18.785,-2.549ZM14.725,-2.865L18.668,-2.865L16.699,-8.15L14.725,-2.865Z" style="fill-rule:nonzero;"/>
                </g>
            </g>
            <g transform="matrix(1,0,0,1,-4.81903,0)">
                <g transform="matrix(1,0,0,1,298.002,831.261)">
                    <path d="M6.85,-8.215L3.744,-8.215L3.744,0L3.428,0L3.428,-8.215L0.322,-8.215L0.322,-8.531L6.85,-8.531L6.85,-8.215Z" style="fill:rgb(13,121,242);fill-rule:nonzero;"/>
                </g>
                <g transform="matrix(1,0,0,1,306.374,831.261)">
                    <path d="M5.666,-2.549L1.488,-2.549L0.539,0L0.193,0L3.387,-8.531L3.773,-8.531L6.967,0L6.621,0L5.666,-2.549ZM1.605,-2.865L5.549,-2.865L3.58,-8.15L1.605,-2.865Z" style="fill:rgb(13,121,242);fill-rule:nonzero;"/>
                    <path d="M13.447,-2.045C13.447,-2.408 13.362,-2.716 13.192,-2.968C13.022,-3.22 12.755,-3.442 12.39,-3.636C12.024,-3.829 11.473,-4.027 10.734,-4.23C9.996,-4.434 9.442,-4.639 9.073,-4.846C8.704,-5.053 8.434,-5.293 8.262,-5.566C8.09,-5.84 8.004,-6.172 8.004,-6.563C8.004,-7.184 8.266,-7.687 8.789,-8.071C9.313,-8.456 9.994,-8.648 10.834,-8.648C11.381,-8.648 11.872,-8.542 12.308,-8.329C12.743,-8.116 13.08,-7.817 13.318,-7.433C13.557,-7.048 13.676,-6.613 13.676,-6.129L13.359,-6.129C13.359,-6.766 13.125,-7.292 12.656,-7.708C12.188,-8.124 11.58,-8.332 10.834,-8.332C10.084,-8.332 9.478,-8.165 9.015,-7.831C8.552,-7.497 8.32,-7.078 8.32,-6.574C8.32,-6.063 8.521,-5.65 8.924,-5.338C9.326,-5.025 9.99,-4.749 10.916,-4.509C11.842,-4.269 12.52,-3.99 12.949,-3.674C13.496,-3.271 13.77,-2.732 13.77,-2.057C13.77,-1.627 13.648,-1.247 13.406,-0.917C13.164,-0.587 12.82,-0.332 12.375,-0.152C11.93,0.027 11.43,0.117 10.875,0.117C10.258,0.117 9.703,0.015 9.211,-0.19C8.719,-0.396 8.349,-0.688 8.101,-1.066C7.853,-1.445 7.729,-1.893 7.729,-2.408L8.045,-2.408C8.045,-1.709 8.307,-1.166 8.83,-0.779C9.354,-0.393 10.035,-0.199 10.875,-0.199C11.621,-0.199 12.236,-0.37 12.721,-0.712C13.205,-1.054 13.447,-1.498 13.447,-2.045Z" style="fill:rgb(13,121,242);fill-rule:nonzero;"/>
                </g>
            </g>
        </g>
    </g>
</svg>
